<svg width="52" height="35" viewBox="0 0 52 35" fill="none" xmlns="http://www.w3.org/2000/svg">
<g clip-path="url(#clip0_9138_729)">
<path d="M7.67 5.62012H1" stroke="#181818" stroke-width="2" stroke-linecap="round" stroke-linejoin="round"/>
<path d="M30.3299 26.7899H45.4299C46.3299 26.7899 47.2399 27.1299 47.9299 27.8199C48.6199 28.5099 48.9599 29.4099 48.9599 30.3199C48.9599 31.2299 48.6199 32.1299 47.9299 32.8199C47.2399 33.5099 46.3399 33.8499 45.4299 33.8499H25.3599C24.9099 33.8499 24.4499 33.7599 24.0099 33.5799C23.5699 33.3999 23.1799 33.1299 22.8699 32.8099L15.1799 25.1199C14.2199 24.1599 13.0699 23.3699 11.7399 22.8199C10.4099 22.2699 9.03994 22.0099 7.68994 22.0099V8.60986H15.7299C16.6299 8.60986 17.5499 8.77986 18.4299 9.14986C19.3099 9.51986 20.0799 10.0399 20.7199 10.6799L31.1399 21.0899C31.7799 21.7299 32.1699 22.6099 32.1699 23.5899C32.1699 24.5699 31.7799 25.4499 31.1399 26.0899C30.4999 26.7299 29.6199 27.1199 28.6399 27.1199C27.6699 27.1199 26.7799 26.7299 26.1399 26.0899L18.4599 18.3999" stroke="#181818" stroke-width="2" stroke-linecap="round" stroke-linejoin="round"/>
<path d="M7.67 5.62012H1V25.0401H7.67V5.62012Z" stroke="#181818" stroke-width="2" stroke-linecap="round" stroke-linejoin="round"/>
<path d="M37.1299 16.4702C39.8858 16.4702 42.1199 14.2361 42.1199 11.4802C42.1199 8.72433 39.8858 6.49023 37.1299 6.49023C34.374 6.49023 32.1399 8.72433 32.1399 11.4802C32.1399 14.2361 34.374 16.4702 37.1299 16.4702Z" stroke="#D9000D" stroke-width="2" stroke-linecap="round" stroke-linejoin="round"/>
<path d="M28.2301 7.22C29.9477 7.22 31.3401 5.82761 31.3401 4.11C31.3401 2.39239 29.9477 1 28.2301 1C26.5125 1 25.1201 2.39239 25.1201 4.11C25.1201 5.82761 26.5125 7.22 28.2301 7.22Z" stroke="#D9000D" stroke-width="2" stroke-linecap="round" stroke-linejoin="round"/>
<path d="M47.2101 7.61014C48.9277 7.61014 50.3201 6.21774 50.3201 4.50014C50.3201 2.78253 48.9277 1.39014 47.2101 1.39014C45.4925 1.39014 44.1001 2.78253 44.1001 4.50014C44.1001 6.21774 45.4925 7.61014 47.2101 7.61014Z" stroke="#D9000D" stroke-width="2" stroke-linecap="round" stroke-linejoin="round"/>
<path d="M33.01 8.1898L30.53 6.2998" stroke="#D9000D" stroke-width="2" stroke-linecap="round" stroke-linejoin="round"/>
<path d="M44.81 7.02002L41.78 9.59002" stroke="#D9000D" stroke-width="2" stroke-linecap="round" stroke-linejoin="round"/>
</g>
<defs>
<clipPath id="clip0_9138_729">
<rect width="51.32" height="34.85" fill="white"/>
</clipPath>
</defs>
</svg>
