<svg width="57" height="57" viewBox="0 0 57 57" fill="none" xmlns="http://www.w3.org/2000/svg">
<g clip-path="url(#clip0_9139_372)">
<path d="M49.49 28.13C49.49 39.93 39.93 49.49 28.13 49.49C16.33 49.49 6.77002 39.93 6.77002 28.13C6.77002 16.33 16.34 6.77002 28.13 6.77002C39.92 6.77002 49.49 16.34 49.49 28.13Z" stroke="#181818" stroke-width="2" stroke-miterlimit="10"/>
<path d="M28.1299 49.49C22.2299 49.49 17.45 39.93 17.45 28.13C17.45 16.33 22.2299 6.77002 28.1299 6.77002" stroke="#181818" stroke-width="2" stroke-miterlimit="10"/>
<path d="M28.1301 49.49C34.0301 49.49 38.8101 39.93 38.8101 28.13C38.8101 16.33 34.0301 6.77002 28.1301 6.77002" stroke="#181818" stroke-width="2" stroke-miterlimit="10"/>
<path d="M28.1301 6.77002V49.49" stroke="#181818" stroke-width="2" stroke-miterlimit="10"/>
<path d="M6.77002 28.1299H49.49" stroke="#181818" stroke-width="2" stroke-miterlimit="10"/>
<path d="M11.46 14.79C16.7 16.51 22.31 17.45 28.13 17.45C33.95 17.45 39.56 16.51 44.8 14.79" stroke="#181818" stroke-width="2" stroke-miterlimit="10"/>
<path d="M11.46 41.4701C16.7 39.7501 22.31 38.8101 28.13 38.8101C33.95 38.8101 39.56 39.7501 44.8 41.4701" stroke="#181818" stroke-width="2" stroke-miterlimit="10"/>
<path d="M4.83 42.03C2.4 37.96 1 33.21 1 28.13C1 13.15 13.15 1 28.13 1C33.52 1 38.54 2.57 42.76 5.28" stroke="#181818" stroke-width="2" stroke-miterlimit="10"/>
<path d="M47.5999 9.22998C52.3399 14.12 55.2599 20.78 55.2599 28.13C55.2599 43.11 43.1099 55.26 28.1299 55.26C20.4799 55.26 13.5699 52.09 8.63989 47" stroke="#181818" stroke-width="2" stroke-miterlimit="10"/>
<path d="M48.39 7.02998C48.39 8.70998 47.03 10.08 45.34 10.08C43.65 10.08 42.3 8.71998 42.3 7.02998C42.3 5.33998 43.66 3.97998 45.34 3.97998C47.02 3.97998 48.39 5.33998 48.39 7.02998Z" stroke="#D9000D" stroke-width="2" stroke-miterlimit="10"/>
<path d="M9.60001 44.5998C9.60001 46.2798 8.24001 47.6498 6.55001 47.6498C4.86001 47.6498 3.51001 46.2898 3.51001 44.5998C3.51001 42.9098 4.87001 41.5498 6.55001 41.5498C8.23001 41.5498 9.60001 42.9098 9.60001 44.5998Z" stroke="#D9000D" stroke-width="2" stroke-miterlimit="10"/>
</g>
<defs>
<clipPath id="clip0_9139_372">
<rect width="56.26" height="56.26" fill="white"/>
</clipPath>
</defs>
</svg>
