<svg width="40" height="40" viewBox="0 0 40 40" fill="none" xmlns="http://www.w3.org/2000/svg">
<path d="M35.0007 27.6667H13.334C12.892 27.6667 12.468 27.8423 12.1555 28.1548C11.8429 28.4674 11.6673 28.8913 11.6673 29.3333C11.6673 29.7754 11.8429 30.1993 12.1555 30.5118C12.468 30.8244 12.892 31 13.334 31H35.0007C35.4427 31 35.8666 30.8244 36.1792 30.5118C36.4917 30.1993 36.6673 29.7754 36.6673 29.3333C36.6673 28.8913 36.4917 28.4674 36.1792 28.1548C35.8666 27.8423 35.4427 27.6667 35.0007 27.6667ZM5.00065 12.3333H35.0007C35.4427 12.3333 35.8666 12.1577 36.1792 11.8452C36.4917 11.5326 36.6673 11.1087 36.6673 10.6667C36.6673 10.2246 36.4917 9.80072 36.1792 9.48816C35.8666 9.1756 35.4427 9 35.0007 9H5.00065C4.55862 9 4.1347 9.1756 3.82214 9.48816C3.50958 9.80072 3.33398 10.2246 3.33398 10.6667C3.33398 11.1087 3.50958 11.5326 3.82214 11.8452C4.1347 12.1577 4.55862 12.3333 5.00065 12.3333ZM35.0007 18.3333H5.00065C4.55862 18.3333 4.1347 18.5089 3.82214 18.8215C3.50958 19.134 3.33398 19.558 3.33398 20C3.33398 20.442 3.50958 20.8659 3.82214 21.1785C4.1347 21.4911 4.55862 21.6667 5.00065 21.6667H35.0007C35.4427 21.6667 35.8666 21.4911 36.1792 21.1785C36.4917 20.8659 36.6673 20.442 36.6673 20C36.6673 19.558 36.4917 19.134 36.1792 18.8215C35.8666 18.5089 35.4427 18.3333 35.0007 18.3333Z" fill="white"/>
<circle cx="5.00065" cy="29.3346" r="1.66667" fill="white"/>
</svg>
