<svg width="42" height="56" viewBox="0 0 42 56" fill="none" xmlns="http://www.w3.org/2000/svg">
<g clip-path="url(#clip0_9139_359)">
<path d="M1 44.9V5.94C1 3.21 3.21 1 5.94 1H38.76C39.59 1 40.26 1.67 40.26 2.5V38.11C40.26 38.94 39.59 39.61 38.76 39.61H6.86" stroke="black" stroke-width="2" stroke-miterlimit="10"/>
<path d="M6.43 50.45C3.43 50.45 1 48.02 1 45.02C1 42.02 3.43 39.59 6.43 39.61H37.8" stroke="black" stroke-width="2" stroke-miterlimit="10" stroke-linecap="round"/>
<path d="M40.47 50.4502H14.54" stroke="black" stroke-width="2" stroke-miterlimit="10" stroke-linecap="round"/>
<path d="M37.8 40.3198V49.9698" stroke="black" stroke-width="2" stroke-miterlimit="10" stroke-linecap="round"/>
<path d="M4.80005 1.8999V39.2699" stroke="black" stroke-width="2" stroke-miterlimit="10" stroke-linecap="round"/>
<path d="M13.2401 54.5202L11.0501 53.2302C10.8101 53.0902 10.5101 53.1002 10.2801 53.2502L8.37012 54.5202C7.74012 54.8902 7.37012 54.2802 7.37012 53.8402V47.9802C7.37012 47.5402 7.73012 47.1802 8.17012 47.1802H13.4701C13.9101 47.1802 14.2701 47.5402 14.2701 47.9802V53.8402C14.2701 54.2802 14.0301 54.8502 13.2301 54.5102L13.2401 54.5202Z" stroke="black" stroke-width="2" stroke-miterlimit="10"/>
<path d="M25.6621 14.1008L21.4053 9.84402C20.9953 9.43397 20.3304 9.43397 19.9204 9.84402L12.0644 17.7C11.6544 18.11 11.6544 18.7749 12.0644 19.1849L16.3212 23.4417C16.7313 23.8517 17.3961 23.8517 17.8061 23.4417L25.6621 15.5857C26.0721 15.1757 26.0721 14.5109 25.6621 14.1008Z" stroke="#D9000D" stroke-width="2" stroke-miterlimit="10"/>
<path d="M22.9501 18.3101L32.5101 27.8701C33.1701 28.5301 33.1701 29.6001 32.5101 30.2601C31.8501 30.9201 30.7801 30.9201 30.1201 30.2601L20.5601 20.7001" stroke="#D9000D" stroke-width="2" stroke-miterlimit="10"/>
<path d="M24.1201 16.7797L19.0801 11.7397" stroke="#D9000D" stroke-width="2" stroke-miterlimit="10" stroke-linecap="round"/>
<path d="M18.9599 21.9402L13.9199 16.9102" stroke="#D9000D" stroke-width="2" stroke-miterlimit="10" stroke-linecap="round"/>
</g>
<defs>
<clipPath id="clip0_9139_359">
<rect width="41.47" height="55.64" fill="white"/>
</clipPath>
</defs>
</svg>
