
<svg version="1.2" xmlns="http://www.w3.org/2000/svg" viewBox="0 0 713 101" width="713" height="101"><style>.a{fill:#ec1c24}.b{fill:#fefefe}</style><path class="a" d="m71.5 92.2c-11.3 11.3-29.8 11.3-41.2 0l-20.9-20.9c-11.3-11.4-11.3-29.9 0-41.2l20.9-20.9c11.4-11.3 29.9-11.3 41.2 0l20.9 20.9c11.3 11.3 11.3 29.8 0 41.2z"/><path class="b" d="m38.5 81.4c-1.6 0-3-1.3-3.1-3 0-0.8 0.3-1.6 0.9-2.2 0.5-0.6 1.3-1 2.1-1 1.7-0.1 3.1 1.3 3.2 3 0.1 1.7-1.2 3.1-2.9 3.2q-0.1 0-0.2 0z"/><path class="b" d="m49.8 24.3c-1.7 0-3.1 0.5-4.2 1.6-2.3 2.4-3.6 7.3-3.5 13.7 0.2 8 2.1 23.7 8.3 31.7q1.6 2 3.3 3.1c1.1 0.8 2.3 1.5 4.3 1.5q0.8 0 1.6-0.2c3.7-0.8 8.2-4.8 11.5-10.2 0.5-0.8 1.4-1.3 2.4-1.3q0.8 0 1.4 0.5c0.7 0.3 1.1 1 1.3 1.7 0.1 0.7 0 1.5-0.4 2.1-4.2 6.7-9.8 11.5-15 12.7q0 0-0.1 0-1.4 0.2-2.8 0.2c-3.3 0-5.6-1.2-7.3-2.3q-2.5-1.7-4.5-4.3c-8.9-11.4-9.5-32.7-9.5-35.1-0.1-5.6 0.7-13.3 5.1-17.7 2.2-2.1 4.9-3.2 8.1-3.2h0.5c3.2 0 5.9 1.1 8 3.2 4.4 4.4 5.3 12.1 5.2 17.7-0.1 5.9-1.2 17.4-7.3 27.6-0.5 0.8-1.4 1.4-2.4 1.4q-0.8 0-1.4-0.4c-1.3-0.8-1.8-2.5-1-3.8 4.3-7.2 6.4-15.1 6.5-24.9 0.1-6.4-1.1-11.3-3.5-13.7-1.1-1.1-2.4-1.6-4.1-1.6z"/><path fill-rule="evenodd" class="a" d="m375.9 68.8l-3.6-7.1h-20.3l-3.7 7.1h-6.9l17.8-33.1q0.5-1.1 1.5-1.7 1.1-0.7 2.3-0.7h3.8q1.3 0 2.3 0.7 1 0.6 1.6 1.7l16.6 33.1zm-21.8-11.3h16.1l-6.1-12q-0.4-0.6-0.7-1-0.3-0.3-0.6-0.5-0.3-0.2-0.6-0.2-0.3 0-0.6 0.2-0.3 0.2-0.7 0.5-0.3 0.4-0.7 1z"/><path class="a" d="m404.3 63.6q0.8 0.9 2.6 0.9h16.4v4.2h-25.8q-1 0-1.9-0.2-1-0.2-1.8-0.9-0.7-0.6-1.2-1.7-0.5-1.1-0.5-2.8v-29.7h11.4v27.2q0 2.1 0.8 3z"/><path class="a" d="m439.3 33.3v24.9q0 1.6 0.7 3 0.7 1.4 2 2.5 1.2 1.1 2.8 1.7 1.6 0.6 3.4 0.6 1.8 0 3.4-0.6 1.6-0.6 2.8-1.7 1.3-1.1 1.9-2.5 0.7-1.4 0.7-3v-24.9h11.4v22.5q0 3.4-1.4 6.1-1.5 2.6-4.2 4.5-2.6 1.8-6.4 2.8-3.7 1-8.2 1-4.5 0-8.3-1-3.7-1-6.4-2.8-2.6-1.9-4.1-4.5-1.5-2.7-1.5-6.1v-22.5z"/><path class="a" d="m495.1 68.8q-0.5 0-1-0.3-0.5-0.2-1-0.9-0.5-0.6-0.9-1.8l-9.2-23.1v26.1h-6.3v-32.5q0-1.2 0.8-2.1 0.8-0.8 2.5-0.8h6.8q1.7 0 2.8 0.8 1.1 0.9 1.6 2.1l7.4 20.2 7.9-20.2q0.5-1.2 1.6-2.1 1.1-0.8 2.7-0.8h7.4q1.6 0 2.4 0.8 0.8 0.9 0.8 2.1v32.5h-11.1v-26.2l-9.2 23.5q-0.4 1.1-0.8 1.6-0.4 0.5-0.9 0.7-0.4 0.3-0.9 0.3-0.5 0-1 0h-1.4q-0.5 0-1 0.1z"/><path class="a" d="m530.2 33.4h11.5v35.4h-11.5z"/><path class="a" d="m589.8 67.9q-0.9 0.9-2.5 0.9h-5.7q-1.7 0-2.9-0.9-1.2-0.9-2-2.1l-15.1-24.8v27.8h-11.2v-32.4q0-1.2 0.9-2.1 0.8-0.8 2.4-0.8h6.2q1.6 0 2.8 0.9 1.2 0.9 2 2l14.7 23.9v-26.8h11.2v32.3q0 1.3-0.8 2.1z"/><path class="a" d="m599.4 33.4h11.4v35.4h-11.4z"/><path class="a" d="m630.8 33.3v24.9q0 1.6 0.7 3 0.7 1.4 1.9 2.5 1.2 1.1 2.8 1.7 1.6 0.6 3.4 0.6 1.9 0 3.5-0.6 1.6-0.6 2.8-1.7 1.2-1.1 1.9-2.5 0.7-1.4 0.7-3v-24.9h11.4v22.5q0 3.4-1.5 6.1-1.5 2.6-4.2 4.5-2.6 1.8-6.4 2.8-3.7 1-8.2 1-4.5 0-8.2-1-3.8-1-6.4-2.8-2.7-1.9-4.2-4.5-1.4-2.7-1.4-6.1v-22.5z"/><path class="a" d="m686.5 68.8q-0.5 0-1-0.3-0.5-0.2-1-0.9-0.4-0.6-0.9-1.8l-9.1-23.1v26.1h-6.3v-32.5q0-1.2 0.8-2.1 0.8-0.8 2.4-0.8h6.8q1.7 0 2.8 0.8 1.1 0.9 1.6 2.1l7.4 20.2 8-20.2q0.4-1.2 1.5-2.1 1.1-0.8 2.8-0.8h7.3q1.7 0 2.5 0.8 0.8 0.9 0.8 2.1v32.5h-11.2v-26.2l-9.2 23.5q-0.4 1.1-0.8 1.6-0.4 0.5-0.9 0.7-0.4 0.3-0.9 0.3-0.5 0-1 0h-1.3q-0.6 0-1.1 0.1z"/><path fill-rule="evenodd" class="a" d="m201.8 51.2c0 10.5-8.2 18.9-21.9 18.9-13.7 0-22-8.4-22-18.9 0-10.5 8.3-19 22-19 13.7 0 21.9 8.5 21.9 19zm-10.3 0c0-8.2-5-14.9-11.6-14.9-6.6 0-11.6 6.7-11.6 14.9 0 8.2 5 14.9 11.6 14.9 6.6 0 11.6-6.7 11.6-14.9z"/><path class="a" d="m203.7 37.8h14.5v30.8h10.9v-30.8h12.2v-4.2h-37.6z"/><path class="a" d="m245.3 37.8h12.1v30.8h10.9v-30.8h14.5v-4.2h-37.5z"/><path class="a" d="m136.2 62.3v-28.7h-10.4v30.8c0 2.3 1.9 4.2 4.2 4.2h26.7v-4.2h-18.4c-1.1 0-2.1-1-2.1-2.1z"/><path class="a" d="m288.7 37.8v26.6c0 2.3 1.9 4.2 4.2 4.2h28.5v-4.2h-20.1c-1.2 0-2.1-0.9-2.1-2v-10.3h21.8v-4.1h-21.8v-8.2c0-1.1 0.9-2 2.1-2h20.1v-4.2h-28.5c-2.3 0-4.2 1.9-4.2 4.2z"/></svg>